<?xml version="1.0" encoding="utf-8"?>
<!-- Generator: Adobe Illustrator 19.0.0, SVG Export Plug-In . SVG Version: 6.00 Build 0)  -->
<svg version="1.1" id="Layer_1" xmlns="http://www.w3.org/2000/svg" xmlns:xlink="http://www.w3.org/1999/xlink" x="0px" y="0px"
	 viewBox="0 0 300 37" style="enable-background:new 0 0 300 37;" xml:space="preserve">
<style type="text/css">
	.st0{fill:#00B7FF;}
	.st1{fill:#FFFFFF;}
</style>
<g id="XMLID_1_">
	<g>
		<g>
			<rect id="XMLID_36_" class="st0" width="3.2" height="23.2"/>
		</g>
		<g>
			<g>
				<path class="st0" d="M26.6,37h-12C6.6,37,0,30.5,0,22.4c0-5.5,2.1-10.1,6.2-13.3c3.7-3,8.8-4.6,14.5-4.6s10.8,1.6,14.5,4.6
					c4.1,3.3,6.2,7.9,6.2,13.3C41.3,30.5,34.7,37,26.6,37z M20.6,7.7C12,7.7,3.2,12.2,3.2,22.4c0,6.3,5.1,11.5,11.5,11.5h12
					c6.3,0,11.5-5.1,11.5-11.5C38.1,12.2,29.3,7.7,20.6,7.7L20.6,7.7z"/>
			</g>
			<g>
				<rect id="XMLID_33_" x="38.1" class="st0" width="3.2" height="23.2"/>
			</g>
		</g>
		<g>
			<g>
				<circle id="XMLID_32_" class="st1" cx="26" cy="23.2" r="1.6"/>
			</g>
			<g>
				<circle id="XMLID_31_" class="st1" cx="15.3" cy="23.2" r="1.6"/>
			</g>
			<g>
				<path class="st1" d="M27.6,17.5H13.7c-3.1,0-5.7,2.6-5.7,5.7c0,3.1,2.6,5.7,5.7,5.7h13.9c3.1,0,5.7-2.6,5.7-5.7
					C33.3,20.1,30.7,17.5,27.6,17.5z M15.3,26.7c-2,0-3.5-1.6-3.5-3.5c0-2,1.6-3.5,3.5-3.5c2,0,3.5,1.6,3.5,3.5
					C18.8,25.2,17.3,26.7,15.3,26.7z M26,26.7c-2,0-3.5-1.6-3.5-3.5c0-2,1.6-3.5,3.5-3.5c2,0,3.5,1.6,3.5,3.5
					C29.5,25.2,27.9,26.7,26,26.7z"/>
			</g>
		</g>
	</g>
	<g>
		<path class="st1" d="M58.9,29.1c-3,0-4.3-2.2-4.3-4.3v-7.4H53v-2.8h1.6v-4.4h3.7v4.4H61v2.8h-2.6v7.2c0,0.9,0.4,1.3,1.3,1.3H61
			v3.2H58.9z"/>
		<path class="st1" d="M67.2,22.8c0,1.9,1.2,3.3,3.3,3.3c1.6,0,2.4-0.5,3.4-1.4l2.3,2.2c-1.5,1.5-3,2.4-5.7,2.4
			c-3.5,0-6.9-1.6-6.9-7.7c0-4.9,2.6-7.6,6.5-7.6c4.2,0,6.5,3,6.5,7.1v1.7H67.2z M72.5,18.6c-0.4-0.9-1.2-1.5-2.5-1.5
			c-1.3,0-2.1,0.7-2.5,1.5c-0.2,0.5-0.3,0.9-0.3,1.6h5.7C72.8,19.6,72.7,19.2,72.5,18.6z"/>
		<path class="st1" d="M84.2,29.1c-3.1,0-4.4-2.2-4.4-4.3V8.7h3.7v15.9c0,0.9,0.4,1.3,1.3,1.3h1.4v3.2H84.2z"/>
		<path class="st1" d="M91.5,22.8c0,1.9,1.2,3.3,3.3,3.3c1.6,0,2.4-0.5,3.4-1.4l2.3,2.2c-1.5,1.5-3,2.4-5.7,2.4
			c-3.5,0-6.9-1.6-6.9-7.7c0-4.9,2.6-7.6,6.5-7.6c4.2,0,6.5,3,6.5,7.1v1.7H91.5z M96.8,18.6c-0.4-0.9-1.2-1.5-2.5-1.5
			c-1.3,0-2.1,0.7-2.5,1.5c-0.2,0.5-0.3,0.9-0.3,1.6h5.7C97.2,19.6,97.1,19.2,96.8,18.6z"/>
		<path class="st1" d="M109.5,34.7c-2.3,0-3.9-0.5-5.4-2l2.3-2.4c0.8,0.8,1.7,1.1,2.9,1.1c2.2,0,3-1.6,3-3.1V27
			c-1,1.1-2.1,1.5-3.6,1.5c-1.5,0-2.7-0.5-3.6-1.3c-1.4-1.4-1.5-3.3-1.5-5.9s0.1-4.5,1.5-5.9c0.8-0.8,2.1-1.3,3.6-1.3
			c1.6,0,2.6,0.4,3.6,1.6v-1.4h3.6v14.4C116,32.1,113.5,34.7,109.5,34.7z M109.8,17.3c-2.2,0-2.4,1.9-2.4,3.9s0.2,3.9,2.4,3.9
			c2.2,0,2.5-1.9,2.5-3.9S112,17.3,109.8,17.3z"/>
		<path class="st1" d="M128.3,18.2c-0.6-0.6-1.1-0.9-2-0.9c-1.1,0-2.4,0.9-2.4,2.8v9h-3.7V14.1h3.6v1.4c0.7-0.9,2.2-1.6,3.8-1.6
			c1.5,0,2.5,0.4,3.5,1.4L128.3,18.2z"/>
		<path class="st1" d="M140.6,29.1v-1.3c-1,1-2,1.4-3.7,1.4c-1.7,0-2.9-0.4-3.8-1.3c-0.8-0.8-1.2-2-1.2-3.4c0-2.4,1.6-4.3,5.1-4.3
			h3.5v-0.7c0-1.6-0.8-2.4-2.8-2.4c-1.4,0-2.1,0.3-2.9,1.2l-2.4-2.3c1.5-1.6,2.9-2.1,5.4-2.1c4.2,0,6.4,1.8,6.4,5.3v9.8H140.6z
			 M140.5,22.8h-3c-1.3,0-2.1,0.6-2.1,1.7c0,1,0.7,1.7,2.2,1.7c1,0,1.7-0.1,2.4-0.7c0.4-0.4,0.5-1,0.5-1.9V22.8z"/>
		<path class="st1" d="M165.7,29.1v-9c0-2-1.3-2.7-2.5-2.7c-1.1,0-2.5,0.7-2.5,2.6v9.1H157v-9c0-2-1.3-2.7-2.5-2.7
			c-1.2,0-2.5,0.7-2.5,2.7v9h-3.7V14.1h3.6v1.4c1-1,2.4-1.5,3.7-1.5c1.7,0,3,0.6,4,1.9c1.3-1.3,2.6-1.9,4.5-1.9
			c1.5,0,2.8,0.5,3.7,1.3c1.2,1.2,1.6,2.6,1.6,4.2v9.6H165.7z"/>
		<path class="st1" d="M173,22.6v-3.5h8.8v3.5H173z"/>
		<path class="st1" d="M194.3,29.1v-9c0-2-1.3-2.7-2.5-2.7c-1.2,0-2.5,0.7-2.5,2.7v9h-3.7V14.1h3.6v1.4c1-1,2.4-1.5,3.7-1.5
			c1.5,0,2.7,0.5,3.5,1.3c1.2,1.2,1.5,2.6,1.5,4.2v9.6H194.3z"/>
		<path class="st1" d="M212.4,27.4c-0.9,1-2.4,1.8-4.6,1.8s-3.7-0.9-4.6-1.8c-1.3-1.4-1.7-3.1-1.7-5.8c0-2.7,0.3-4.4,1.7-5.8
			c0.9-1,2.4-1.8,4.6-1.8s3.7,0.9,4.6,1.8c1.3,1.4,1.7,3.1,1.7,5.8C214.1,24.3,213.7,26,212.4,27.4z M209.5,18
			c-0.4-0.4-1-0.7-1.7-0.7s-1.3,0.2-1.7,0.7c-0.8,0.8-0.9,2.1-0.9,3.6c0,1.5,0.1,2.9,0.9,3.6c0.4,0.4,1,0.7,1.7,0.7s1.3-0.2,1.7-0.7
			c0.8-0.8,0.9-2.1,0.9-3.6C210.3,20.1,210.3,18.8,209.5,18z"/>
		<path class="st1" d="M225.9,29.1v-1.4c-1,1.1-2.1,1.6-3.7,1.6c-1.5,0-2.8-0.5-3.7-1.3c-1.5-1.5-1.5-4.1-1.5-6.3
			c0-2.2,0-4.8,1.5-6.3c0.8-0.8,2.2-1.3,3.6-1.3c1.5,0,2.7,0.4,3.6,1.5V8.7h3.7v20.4H225.9z M223.3,17.3c-2.2,0-2.5,1.8-2.5,4.3
			c0,2.4,0.3,4.3,2.5,4.3c2.2,0,2.6-1.9,2.6-4.3C225.8,19.2,225.5,17.3,223.3,17.3z"/>
		<path class="st1" d="M236.6,22.8c0,1.9,1.2,3.3,3.3,3.3c1.6,0,2.4-0.5,3.4-1.4l2.3,2.2c-1.5,1.5-3,2.4-5.7,2.4
			c-3.5,0-6.9-1.6-6.9-7.7c0-4.9,2.6-7.6,6.5-7.6c4.2,0,6.5,3,6.5,7.1v1.7H236.6z M242,18.6c-0.4-0.9-1.2-1.5-2.5-1.5
			c-1.3,0-2.1,0.7-2.5,1.5c-0.2,0.5-0.3,0.9-0.3,1.6h5.7C242.3,19.6,242.2,19.2,242,18.6z"/>
		<path class="st1" d="M249,22.6v-3.5h8.8v3.5H249z"/>
		<path class="st1" d="M272.6,27.9c-0.8,0.8-2.2,1.3-3.6,1.3c-1.6,0-2.7-0.4-3.7-1.6v1.4h-3.6V8.7h3.7v6.8c1-1.1,2.1-1.5,3.6-1.5
			c1.5,0,2.8,0.5,3.6,1.3c1.5,1.5,1.5,4,1.5,6.3C274.2,23.8,274.1,26.4,272.6,27.9z M267.9,17.3c-2.2,0-2.5,1.8-2.5,4.3
			c0,2.4,0.3,4.3,2.5,4.3c2.2,0,2.5-1.9,2.5-4.3C270.4,19.2,270.1,17.3,267.9,17.3z"/>
		<path class="st1" d="M288,27.4c-0.9,1-2.4,1.8-4.6,1.8c-2.2,0-3.7-0.9-4.6-1.8c-1.3-1.4-1.7-3.1-1.7-5.8c0-2.7,0.3-4.4,1.7-5.8
			c0.9-1,2.4-1.8,4.6-1.8c2.2,0,3.7,0.9,4.6,1.8c1.3,1.4,1.7,3.1,1.7,5.8C289.7,24.3,289.4,26,288,27.4z M285.1,18
			c-0.4-0.4-1-0.7-1.7-0.7s-1.3,0.2-1.7,0.7c-0.8,0.8-0.9,2.1-0.9,3.6c0,1.5,0.1,2.9,0.9,3.6c0.4,0.4,1,0.7,1.7,0.7s1.3-0.2,1.7-0.7
			c0.8-0.8,0.9-2.1,0.9-3.6C286,20.1,285.9,18.8,285.1,18z"/>
		<path class="st1" d="M298,29.1c-3,0-4.3-2.2-4.3-4.3v-7.4h-1.6v-2.8h1.6v-4.4h3.7v4.4h2.6v2.8h-2.6v7.2c0,0.9,0.4,1.3,1.3,1.3h1.3
			v3.2H298z"/>
	</g>
</g>
</svg>
